# xmcd
#
# Track frame offsets: 
#        150
#        11566
#        23293
#        35748
#        48505
#        60002
#        73374
#        87466
#        101798
#        116999
#        131262
#        144019
#        157750
#        172299
#        186477
#        198099
#        211765
#        224964
#        238473
#        251598
#
# Disc length: 3540 seconds
#
# Revision: 0
# Processed by: cddbd v1.5.2PL0 Copyright (c) Steve Scherf et al.
# Submitted via: ExactAudioCopy v0.99pb1
#
DISCID=270dd214
DTITLE=Louis Armstrong - The Very Best of Louis Armstrong
DYEAR=2007
DGENRE=Blues
TTITLE0=My Heart
TTITLE1=Muskat Ramble
TTITLE2=Yes, I'm In The Barrel
TTITLE3=Gut Bucket Blues
TTITLE4=Come Back Sweet Papa
TTITLE5=Heebie Jeebies
TTITLE6=Cornet Chop Suey
TTITLE7=Oriental Strut
TTITLE8=Aint Misbehavin
TTITLE9=Some Of These Days
TTITLE10=He Likes It Slow
TTITLE11=St Louis Blues
TTITLE12=Shanghai Shuffle
TTITLE13=Texas Moaner Blues
TTITLE14=Everybody Loves My Baby
TTITLE15=Mandy, Make Up Your Mind
TTITLE16=Papa De Da Da
TTITLE17=Money Blues
TTITLE18=Sugar Foood Stomp
TTITLE19=Wild Man Blues
EXTD=
EXTT0=
EXTT1=
EXTT2=
EXTT3=
EXTT4=
EXTT5=
EXTT6=
EXTT7=
EXTT8=
EXTT9=
EXTT10=
EXTT11=
EXTT12=
EXTT13=
EXTT14=
EXTT15=
EXTT16=
EXTT17=
EXTT18=
EXTT19=
PLAYORDER=
